<mxfile host="Electron" agent="Mozilla/5.0 (Windows NT 10.0; Win64; x64) AppleWebKit/537.36 (KHTML, like Gecko) draw.io/24.7.5 Chrome/126.0.6478.183 Electron/31.3.0 Safari/537.36" version="24.7.5">
  <diagram name="general" id="dy-JIwAjZhRNiIEN8qFi">
    <mxGraphModel dx="2074" dy="1196" grid="1" gridSize="10" guides="1" tooltips="1" connect="1" arrows="1" fold="1" page="1" pageScale="1" pageWidth="850" pageHeight="1100" math="0" shadow="0">
      <root>
        <mxCell id="0" />
        <mxCell id="1" parent="0" />
        <mxCell id="Bl_XamixVQBhT1EMavqV-3" value="Warehouse&lt;div&gt;Service 1&lt;/div&gt;" style="shape=hexagon;perimeter=hexagonPerimeter2;whiteSpace=wrap;html=1;fixedSize=1;fillColor=#d5e8d4;strokeColor=#82b366;" parent="1" vertex="1">
          <mxGeometry x="460" y="450" width="120" height="80" as="geometry" />
        </mxCell>
        <mxCell id="Bl_XamixVQBhT1EMavqV-5" value="Temperature&amp;nbsp;&lt;div&gt;Event&lt;/div&gt;" style="html=1;outlineConnect=0;whiteSpace=wrap;fillColor=#dae8fc;shape=mxgraph.archimate3.application;appType=event;archiType=rounded;strokeColor=#6c8ebf;" parent="1" vertex="1">
          <mxGeometry x="80" y="365" width="150" height="75" as="geometry" />
        </mxCell>
        <mxCell id="Bl_XamixVQBhT1EMavqV-10" style="edgeStyle=orthogonalEdgeStyle;rounded=0;orthogonalLoop=1;jettySize=auto;html=1;entryX=0;entryY=0.5;entryDx=0;entryDy=0;" parent="1" source="Bl_XamixVQBhT1EMavqV-6" target="Bl_XamixVQBhT1EMavqV-3" edge="1">
          <mxGeometry relative="1" as="geometry" />
        </mxCell>
        <mxCell id="Bl_XamixVQBhT1EMavqV-6" value="Temperature&amp;nbsp;&lt;div&gt;Raw Event&lt;/div&gt;" style="html=1;outlineConnect=0;whiteSpace=wrap;fillColor=#dae8fc;shape=mxgraph.archimate3.application;appType=event;archiType=rounded;strokeColor=#6c8ebf;" parent="1" vertex="1">
          <mxGeometry x="90" y="375" width="150" height="75" as="geometry" />
        </mxCell>
        <mxCell id="Bl_XamixVQBhT1EMavqV-8" value="&lt;div&gt;Humidity&lt;/div&gt;&lt;div&gt;Event&lt;/div&gt;" style="html=1;outlineConnect=0;whiteSpace=wrap;fillColor=#dae8fc;shape=mxgraph.archimate3.application;appType=event;archiType=rounded;strokeColor=#6c8ebf;" parent="1" vertex="1">
          <mxGeometry x="85" y="530" width="150" height="75" as="geometry" />
        </mxCell>
        <mxCell id="Bl_XamixVQBhT1EMavqV-12" style="edgeStyle=orthogonalEdgeStyle;rounded=0;orthogonalLoop=1;jettySize=auto;html=1;entryX=0;entryY=0.5;entryDx=0;entryDy=0;" parent="1" source="Bl_XamixVQBhT1EMavqV-9" target="Bl_XamixVQBhT1EMavqV-3" edge="1">
          <mxGeometry relative="1" as="geometry">
            <Array as="points">
              <mxPoint x="350" y="578" />
              <mxPoint x="350" y="490" />
            </Array>
          </mxGeometry>
        </mxCell>
        <mxCell id="Bl_XamixVQBhT1EMavqV-9" value="&lt;div&gt;Humidity&lt;/div&gt;&lt;div&gt;Raw Event&lt;/div&gt;" style="html=1;outlineConnect=0;whiteSpace=wrap;fillColor=#dae8fc;shape=mxgraph.archimate3.application;appType=event;archiType=rounded;strokeColor=#6c8ebf;" parent="1" vertex="1">
          <mxGeometry x="95" y="540" width="150" height="75" as="geometry" />
        </mxCell>
        <mxCell id="Bl_XamixVQBhT1EMavqV-13" value="UDP" style="text;html=1;align=center;verticalAlign=middle;resizable=0;points=[];autosize=1;strokeColor=none;fillColor=none;" parent="1" vertex="1">
          <mxGeometry x="375" y="490" width="50" height="30" as="geometry" />
        </mxCell>
        <mxCell id="Bl_XamixVQBhT1EMavqV-14" value="" style="rounded=0;whiteSpace=wrap;html=1;fillColor=#f5f5f5;fontColor=#333333;strokeColor=#666666;" parent="1" vertex="1">
          <mxGeometry x="821" y="322.5" width="80" height="697.5" as="geometry" />
        </mxCell>
        <mxCell id="Bl_XamixVQBhT1EMavqV-15" value="" style="shape=image;verticalLabelPosition=bottom;labelBackgroundColor=default;verticalAlign=top;aspect=fixed;imageAspect=0;image=https://cdn.icon-icons.com/icons2/2699/PNG/512/apache_kafka_logo_icon_167866.png;rotation=-90;" parent="1" vertex="1">
          <mxGeometry x="790" y="635.75" width="142" height="71" as="geometry" />
        </mxCell>
        <mxCell id="Bl_XamixVQBhT1EMavqV-18" value="Warehouse&lt;div&gt;Service 2&lt;/div&gt;" style="shape=hexagon;perimeter=hexagonPerimeter2;whiteSpace=wrap;html=1;fixedSize=1;fillColor=#d5e8d4;strokeColor=#82b366;" parent="1" vertex="1">
          <mxGeometry x="460" y="805" width="120" height="80" as="geometry" />
        </mxCell>
        <mxCell id="Bl_XamixVQBhT1EMavqV-20" value="Temperature&amp;nbsp;&lt;div&gt;Event&lt;/div&gt;" style="html=1;outlineConnect=0;whiteSpace=wrap;fillColor=#dae8fc;shape=mxgraph.archimate3.application;appType=event;archiType=rounded;strokeColor=#6c8ebf;" parent="1" vertex="1">
          <mxGeometry x="85" y="720" width="150" height="75" as="geometry" />
        </mxCell>
        <mxCell id="Bl_XamixVQBhT1EMavqV-21" style="edgeStyle=orthogonalEdgeStyle;rounded=0;orthogonalLoop=1;jettySize=auto;html=1;entryX=0;entryY=0.5;entryDx=0;entryDy=0;" parent="1" source="Bl_XamixVQBhT1EMavqV-22" target="Bl_XamixVQBhT1EMavqV-18" edge="1">
          <mxGeometry relative="1" as="geometry">
            <Array as="points">
              <mxPoint x="350" y="768" />
              <mxPoint x="350" y="845" />
            </Array>
          </mxGeometry>
        </mxCell>
        <mxCell id="Bl_XamixVQBhT1EMavqV-22" value="Temperature&amp;nbsp;&lt;div&gt;Raw Event&lt;/div&gt;" style="html=1;outlineConnect=0;whiteSpace=wrap;fillColor=#dae8fc;shape=mxgraph.archimate3.application;appType=event;archiType=rounded;strokeColor=#6c8ebf;" parent="1" vertex="1">
          <mxGeometry x="95" y="730" width="150" height="75" as="geometry" />
        </mxCell>
        <mxCell id="Bl_XamixVQBhT1EMavqV-24" value="&lt;div&gt;Humidity&lt;/div&gt;&lt;div&gt;Event&lt;/div&gt;" style="html=1;outlineConnect=0;whiteSpace=wrap;fillColor=#dae8fc;shape=mxgraph.archimate3.application;appType=event;archiType=rounded;strokeColor=#6c8ebf;" parent="1" vertex="1">
          <mxGeometry x="90" y="885" width="150" height="75" as="geometry" />
        </mxCell>
        <mxCell id="Bl_XamixVQBhT1EMavqV-25" style="edgeStyle=orthogonalEdgeStyle;rounded=0;orthogonalLoop=1;jettySize=auto;html=1;entryX=0;entryY=0.5;entryDx=0;entryDy=0;" parent="1" source="Bl_XamixVQBhT1EMavqV-26" target="Bl_XamixVQBhT1EMavqV-18" edge="1">
          <mxGeometry relative="1" as="geometry">
            <Array as="points">
              <mxPoint x="350" y="933" />
              <mxPoint x="350" y="845" />
            </Array>
          </mxGeometry>
        </mxCell>
        <mxCell id="Bl_XamixVQBhT1EMavqV-26" value="&lt;div&gt;Humidity&lt;/div&gt;&lt;div&gt;Raw Event&lt;/div&gt;" style="html=1;outlineConnect=0;whiteSpace=wrap;fillColor=#dae8fc;shape=mxgraph.archimate3.application;appType=event;archiType=rounded;strokeColor=#6c8ebf;" parent="1" vertex="1">
          <mxGeometry x="100" y="895" width="150" height="75" as="geometry" />
        </mxCell>
        <mxCell id="Bl_XamixVQBhT1EMavqV-27" value="UDP" style="text;html=1;align=center;verticalAlign=middle;resizable=0;points=[];autosize=1;strokeColor=none;fillColor=none;" parent="1" vertex="1">
          <mxGeometry x="380" y="845" width="50" height="30" as="geometry" />
        </mxCell>
        <mxCell id="Bl_XamixVQBhT1EMavqV-33" value="" style="shape=flexArrow;endArrow=classic;html=1;rounded=0;dashed=1;exitX=1;exitY=0.5;exitDx=0;exitDy=0;fillColor=#d5e8d4;strokeColor=#82b366;" parent="1" source="Bl_XamixVQBhT1EMavqV-3" edge="1">
          <mxGeometry width="50" height="50" relative="1" as="geometry">
            <mxPoint x="600" y="490" as="sourcePoint" />
            <mxPoint x="820" y="490" as="targetPoint" />
          </mxGeometry>
        </mxCell>
        <mxCell id="Bl_XamixVQBhT1EMavqV-34" value="" style="shape=flexArrow;endArrow=classic;html=1;rounded=0;dashed=1;exitX=1;exitY=0.5;exitDx=0;exitDy=0;entryX=0;entryY=0.75;entryDx=0;entryDy=0;fillColor=#d5e8d4;strokeColor=#82b366;" parent="1" source="Bl_XamixVQBhT1EMavqV-18" target="Bl_XamixVQBhT1EMavqV-14" edge="1">
          <mxGeometry width="50" height="50" relative="1" as="geometry">
            <mxPoint x="600" y="844" as="sourcePoint" />
            <mxPoint x="790" y="844" as="targetPoint" />
          </mxGeometry>
        </mxCell>
        <mxCell id="Bl_XamixVQBhT1EMavqV-36" value="Measurement&lt;div&gt;Event&lt;/div&gt;" style="html=1;outlineConnect=0;whiteSpace=wrap;fillColor=#d5e8d4;shape=mxgraph.archimate3.application;appType=event;archiType=rounded;strokeColor=#82b366;" parent="1" vertex="1">
          <mxGeometry x="625" y="417" width="110" height="55" as="geometry" />
        </mxCell>
        <mxCell id="Bl_XamixVQBhT1EMavqV-56" value="" style="shape=flexArrow;endArrow=classic;html=1;rounded=0;dashed=1;fillColor=#d5e8d4;strokeColor=#82b366;entryX=0;entryY=0.5;entryDx=0;entryDy=0;entryPerimeter=0;" parent="1" target="c_3zVFm1riyOOD2fTJA5-6" edge="1">
          <mxGeometry width="50" height="50" relative="1" as="geometry">
            <mxPoint x="900" y="448" as="sourcePoint" />
            <mxPoint x="1275" y="449.9749999999999" as="targetPoint" />
          </mxGeometry>
        </mxCell>
        <mxCell id="c_3zVFm1riyOOD2fTJA5-1" value="Monitoring Service" style="swimlane;whiteSpace=wrap;html=1;fillColor=#d5e8d4;strokeColor=#82b366;" parent="1" vertex="1">
          <mxGeometry x="1230" y="330" width="790" height="510" as="geometry" />
        </mxCell>
        <mxCell id="c_3zVFm1riyOOD2fTJA5-17" value="" style="sketch=0;pointerEvents=1;shadow=0;dashed=0;html=1;strokeColor=none;fillColor=#434445;aspect=fixed;labelPosition=center;verticalLabelPosition=bottom;verticalAlign=top;align=center;outlineConnect=0;shape=mxgraph.vvd.log_files;" parent="c_3zVFm1riyOOD2fTJA5-1" vertex="1">
          <mxGeometry x="295" y="390" width="72" height="90" as="geometry" />
        </mxCell>
        <mxCell id="c_3zVFm1riyOOD2fTJA5-21" style="edgeStyle=orthogonalEdgeStyle;rounded=0;orthogonalLoop=1;jettySize=auto;html=1;entryX=1;entryY=0.5;entryDx=0;entryDy=0;entryPerimeter=0;endArrow=open;endFill=0;startSize=6;endSize=12;fillColor=#f8cecc;strokeColor=#b85450;" parent="c_3zVFm1riyOOD2fTJA5-1" source="c_3zVFm1riyOOD2fTJA5-9" target="c_3zVFm1riyOOD2fTJA5-5" edge="1">
          <mxGeometry relative="1" as="geometry">
            <mxPoint x="430" y="210" as="targetPoint" />
            <Array as="points">
              <mxPoint x="590" y="118" />
              <mxPoint x="590" y="223" />
            </Array>
          </mxGeometry>
        </mxCell>
        <mxCell id="c_3zVFm1riyOOD2fTJA5-9" value="Check&lt;div&gt;Threshold&lt;/div&gt;" style="html=1;shape=mxgraph.sysml.isStream;whiteSpace=wrap;align=center;fillColor=#d5e8d4;strokeColor=#82b366;" parent="c_3zVFm1riyOOD2fTJA5-1" vertex="1">
          <mxGeometry x="430" y="87.5" width="120" height="60" as="geometry" />
        </mxCell>
        <mxCell id="c_3zVFm1riyOOD2fTJA5-10" value="" style="edgeStyle=elbowEdgeStyle;html=1;elbow=horizontal;startArrow=open;rounded=0;endArrow=none;exitX=0;exitY=0.5;startSize=12;entryX=1;entryY=0.5;entryDx=0;entryDy=0;entryPerimeter=0;fillColor=#d5e8d4;strokeColor=#82b366;" parent="c_3zVFm1riyOOD2fTJA5-1" source="rWcw17IF8FJHYAtS7dX6-1" target="c_3zVFm1riyOOD2fTJA5-6" edge="1">
          <mxGeometry relative="1" as="geometry">
            <mxPoint x="210" y="130" as="targetPoint" />
          </mxGeometry>
        </mxCell>
        <mxCell id="c_3zVFm1riyOOD2fTJA5-6" value="Measurement&lt;br&gt;Event&lt;div&gt;Consumers&lt;/div&gt;" style="html=1;outlineConnect=0;whiteSpace=wrap;fillColor=#d5e8d4;shape=mxgraph.archimate3.application;appType=comp;archiType=square;strokeColor=#82b366;" parent="c_3zVFm1riyOOD2fTJA5-1" vertex="1">
          <mxGeometry x="50" y="80" width="150" height="75" as="geometry" />
        </mxCell>
        <mxCell id="c_3zVFm1riyOOD2fTJA5-5" value="Measurement&lt;div&gt;Alert Event&lt;br&gt;Producer&lt;/div&gt;" style="html=1;outlineConnect=0;whiteSpace=wrap;fillColor=#d5e8d4;shape=mxgraph.archimate3.application;appType=comp;archiType=square;strokeColor=#82b366;" parent="c_3zVFm1riyOOD2fTJA5-1" vertex="1">
          <mxGeometry x="50" y="185" width="150" height="75" as="geometry" />
        </mxCell>
        <mxCell id="c_3zVFm1riyOOD2fTJA5-23" style="edgeStyle=orthogonalEdgeStyle;rounded=0;orthogonalLoop=1;jettySize=auto;html=1;fillColor=#d5e8d4;strokeColor=#82b366;" parent="c_3zVFm1riyOOD2fTJA5-1" source="c_3zVFm1riyOOD2fTJA5-22" target="c_3zVFm1riyOOD2fTJA5-17" edge="1">
          <mxGeometry relative="1" as="geometry" />
        </mxCell>
        <mxCell id="c_3zVFm1riyOOD2fTJA5-22" value="Measurement&amp;nbsp;&lt;span style=&quot;background-color: initial;&quot;&gt;Alert&amp;nbsp;&lt;/span&gt;&lt;div&gt;Malformed&lt;br&gt;&lt;div&gt;Event Consumers&lt;/div&gt;&lt;/div&gt;" style="html=1;outlineConnect=0;whiteSpace=wrap;fillColor=#d5e8d4;shape=mxgraph.archimate3.application;appType=comp;archiType=square;strokeColor=#82b366;" parent="c_3zVFm1riyOOD2fTJA5-1" vertex="1">
          <mxGeometry x="50" y="397.5" width="150" height="75" as="geometry" />
        </mxCell>
        <mxCell id="c_3zVFm1riyOOD2fTJA5-25" value="" style="image;sketch=0;aspect=fixed;html=1;points=[];align=center;fontSize=12;image=img/lib/mscae/Azure_Database_for_PostgreSQL_servers.svg;" parent="c_3zVFm1riyOOD2fTJA5-1" vertex="1">
          <mxGeometry x="690" y="60" width="60.8" height="80" as="geometry" />
        </mxCell>
        <mxCell id="rWcw17IF8FJHYAtS7dX6-1" value="Check&lt;div&gt;Indepotency&lt;/div&gt;" style="html=1;shape=mxgraph.sysml.isStream;whiteSpace=wrap;align=center;fillColor=#d5e8d4;strokeColor=#82b366;" parent="c_3zVFm1riyOOD2fTJA5-1" vertex="1">
          <mxGeometry x="247" y="87.5" width="120" height="60" as="geometry" />
        </mxCell>
        <mxCell id="rWcw17IF8FJHYAtS7dX6-2" value="" style="edgeStyle=elbowEdgeStyle;html=1;elbow=horizontal;startArrow=open;rounded=0;endArrow=none;exitX=0;exitY=0.5;startSize=12;entryX=1;entryY=0.5;entryDx=0;entryDy=0;entryPerimeter=0;fillColor=#d5e8d4;strokeColor=#82b366;" parent="c_3zVFm1riyOOD2fTJA5-1" source="c_3zVFm1riyOOD2fTJA5-9" target="rWcw17IF8FJHYAtS7dX6-1" edge="1">
          <mxGeometry relative="1" as="geometry">
            <mxPoint x="1430" y="448" as="targetPoint" />
            <mxPoint x="1660" y="448" as="sourcePoint" />
          </mxGeometry>
        </mxCell>
        <mxCell id="rWcw17IF8FJHYAtS7dX6-3" style="edgeStyle=orthogonalEdgeStyle;rounded=0;orthogonalLoop=1;jettySize=auto;html=1;entryX=0.362;entryY=0.013;entryDx=0;entryDy=0;entryPerimeter=0;fillColor=#d5e8d4;strokeColor=#82b366;" parent="c_3zVFm1riyOOD2fTJA5-1" source="rWcw17IF8FJHYAtS7dX6-1" target="c_3zVFm1riyOOD2fTJA5-25" edge="1">
          <mxGeometry relative="1" as="geometry">
            <Array as="points">
              <mxPoint x="307" y="40" />
              <mxPoint x="712" y="40" />
            </Array>
          </mxGeometry>
        </mxCell>
        <mxCell id="rWcw17IF8FJHYAtS7dX6-4" style="edgeStyle=orthogonalEdgeStyle;rounded=0;orthogonalLoop=1;jettySize=auto;html=1;entryX=0.345;entryY=-0.012;entryDx=0;entryDy=0;entryPerimeter=0;fillColor=#d5e8d4;strokeColor=#82b366;" parent="c_3zVFm1riyOOD2fTJA5-1" source="c_3zVFm1riyOOD2fTJA5-9" target="c_3zVFm1riyOOD2fTJA5-25" edge="1">
          <mxGeometry relative="1" as="geometry">
            <Array as="points">
              <mxPoint x="490" y="40" />
              <mxPoint x="711" y="40" />
            </Array>
          </mxGeometry>
        </mxCell>
        <mxCell id="c_3zVFm1riyOOD2fTJA5-12" value="" style="shape=flexArrow;endArrow=classic;html=1;rounded=0;dashed=1;fillColor=#d5e8d4;strokeColor=#82b366;exitX=0;exitY=0.5;exitDx=0;exitDy=0;entryX=1;entryY=0.33;entryDx=0;entryDy=0;entryPerimeter=0;exitPerimeter=0;" parent="1" source="c_3zVFm1riyOOD2fTJA5-5" target="Bl_XamixVQBhT1EMavqV-14" edge="1">
          <mxGeometry width="50" height="50" relative="1" as="geometry">
            <mxPoint x="1275" y="548.75" as="sourcePoint" />
            <mxPoint x="930" y="547" as="targetPoint" />
          </mxGeometry>
        </mxCell>
        <mxCell id="c_3zVFm1riyOOD2fTJA5-24" value="" style="shape=flexArrow;endArrow=classic;html=1;rounded=0;dashed=1;fillColor=#d5e8d4;strokeColor=#82b366;entryX=0;entryY=0.5;entryDx=0;entryDy=0;entryPerimeter=0;exitX=1.05;exitY=0.632;exitDx=0;exitDy=0;exitPerimeter=0;" parent="1" source="Bl_XamixVQBhT1EMavqV-14" target="c_3zVFm1riyOOD2fTJA5-22" edge="1">
          <mxGeometry width="50" height="50" relative="1" as="geometry">
            <mxPoint x="895" y="767" as="sourcePoint" />
            <mxPoint x="1275" y="767" as="targetPoint" />
          </mxGeometry>
        </mxCell>
        <mxCell id="c_3zVFm1riyOOD2fTJA5-28" value="" style="shape=image;verticalLabelPosition=bottom;labelBackgroundColor=default;verticalAlign=top;aspect=fixed;imageAspect=0;image=https://static-00.iconduck.com/assets.00/spring-icon-256x256-2efvkvky.png;" parent="1" vertex="1">
          <mxGeometry x="560" y="791.25" width="32.5" height="32.5" as="geometry" />
        </mxCell>
        <mxCell id="c_3zVFm1riyOOD2fTJA5-29" value="" style="shape=image;verticalLabelPosition=bottom;labelBackgroundColor=default;verticalAlign=top;aspect=fixed;imageAspect=0;image=https://static-00.iconduck.com/assets.00/spring-icon-256x256-2efvkvky.png;" parent="1" vertex="1">
          <mxGeometry x="560" y="433.25" width="32.5" height="32.5" as="geometry" />
        </mxCell>
        <mxCell id="c_3zVFm1riyOOD2fTJA5-30" value="" style="shape=image;verticalLabelPosition=bottom;labelBackgroundColor=default;verticalAlign=top;aspect=fixed;imageAspect=0;image=https://static-00.iconduck.com/assets.00/spring-icon-256x256-2efvkvky.png;" parent="1" vertex="1">
          <mxGeometry x="1810" y="330" width="32.5" height="32.5" as="geometry" />
        </mxCell>
        <mxCell id="rWcw17IF8FJHYAtS7dX6-7" value="Malformed&lt;div&gt;Event&lt;/div&gt;" style="html=1;outlineConnect=0;whiteSpace=wrap;fillColor=#d5e8d4;shape=mxgraph.archimate3.application;appType=event;archiType=rounded;strokeColor=#82b366;" parent="1" vertex="1">
          <mxGeometry x="625" y="500" width="110" height="55" as="geometry" />
        </mxCell>
        <mxCell id="rWcw17IF8FJHYAtS7dX6-8" value="Malformed&lt;div&gt;Event&lt;/div&gt;" style="html=1;outlineConnect=0;whiteSpace=wrap;fillColor=#d5e8d4;shape=mxgraph.archimate3.application;appType=event;archiType=rounded;strokeColor=#82b366;" parent="1" vertex="1">
          <mxGeometry x="635" y="510" width="110" height="55" as="geometry" />
        </mxCell>
        <mxCell id="rWcw17IF8FJHYAtS7dX6-11" value="Measurement&lt;div&gt;Event&lt;/div&gt;" style="html=1;outlineConnect=0;whiteSpace=wrap;fillColor=#d5e8d4;shape=mxgraph.archimate3.application;appType=event;archiType=rounded;strokeColor=#82b366;" parent="1" vertex="1">
          <mxGeometry x="635" y="427" width="110" height="55" as="geometry" />
        </mxCell>
        <mxCell id="rWcw17IF8FJHYAtS7dX6-12" value="Measurement&lt;div&gt;Event&lt;/div&gt;" style="html=1;outlineConnect=0;whiteSpace=wrap;fillColor=#d5e8d4;shape=mxgraph.archimate3.application;appType=event;archiType=rounded;strokeColor=#82b366;" parent="1" vertex="1">
          <mxGeometry x="620" y="771" width="110" height="55" as="geometry" />
        </mxCell>
        <mxCell id="rWcw17IF8FJHYAtS7dX6-13" value="Malformed&lt;div&gt;Event&lt;/div&gt;" style="html=1;outlineConnect=0;whiteSpace=wrap;fillColor=#d5e8d4;shape=mxgraph.archimate3.application;appType=event;archiType=rounded;strokeColor=#82b366;" parent="1" vertex="1">
          <mxGeometry x="620" y="854" width="110" height="55" as="geometry" />
        </mxCell>
        <mxCell id="rWcw17IF8FJHYAtS7dX6-14" value="Malformed&lt;div&gt;Event&lt;/div&gt;" style="html=1;outlineConnect=0;whiteSpace=wrap;fillColor=#d5e8d4;shape=mxgraph.archimate3.application;appType=event;archiType=rounded;strokeColor=#82b366;" parent="1" vertex="1">
          <mxGeometry x="630" y="864" width="110" height="55" as="geometry" />
        </mxCell>
        <mxCell id="rWcw17IF8FJHYAtS7dX6-15" value="Measurement&lt;div&gt;Event&lt;/div&gt;" style="html=1;outlineConnect=0;whiteSpace=wrap;fillColor=#d5e8d4;shape=mxgraph.archimate3.application;appType=event;archiType=rounded;strokeColor=#82b366;" parent="1" vertex="1">
          <mxGeometry x="630" y="781" width="110" height="55" as="geometry" />
        </mxCell>
        <mxCell id="rWcw17IF8FJHYAtS7dX6-17" value="Malformed&lt;div&gt;Event&lt;/div&gt;" style="html=1;outlineConnect=0;whiteSpace=wrap;fillColor=#d5e8d4;shape=mxgraph.archimate3.application;appType=event;archiType=rounded;strokeColor=#82b366;" parent="1" vertex="1">
          <mxGeometry x="1008" y="773" width="110" height="55" as="geometry" />
        </mxCell>
        <mxCell id="rWcw17IF8FJHYAtS7dX6-18" value="Malformed&lt;div&gt;Event&lt;/div&gt;" style="html=1;outlineConnect=0;whiteSpace=wrap;fillColor=#d5e8d4;shape=mxgraph.archimate3.application;appType=event;archiType=rounded;strokeColor=#82b366;" parent="1" vertex="1">
          <mxGeometry x="1018" y="783" width="110" height="55" as="geometry" />
        </mxCell>
        <mxCell id="rWcw17IF8FJHYAtS7dX6-20" value="Measurement&lt;div&gt;Event&lt;/div&gt;" style="html=1;outlineConnect=0;whiteSpace=wrap;fillColor=#d5e8d4;shape=mxgraph.archimate3.application;appType=event;archiType=rounded;strokeColor=#82b366;" parent="1" vertex="1">
          <mxGeometry x="1003" y="380" width="110" height="55" as="geometry" />
        </mxCell>
        <mxCell id="rWcw17IF8FJHYAtS7dX6-21" value="Measurement&lt;div&gt;Event&lt;/div&gt;" style="html=1;outlineConnect=0;whiteSpace=wrap;fillColor=#d5e8d4;shape=mxgraph.archimate3.application;appType=event;archiType=rounded;strokeColor=#82b366;" parent="1" vertex="1">
          <mxGeometry x="1013" y="390" width="110" height="55" as="geometry" />
        </mxCell>
        <mxCell id="rWcw17IF8FJHYAtS7dX6-23" value="Measurement&lt;div&gt;Alert Event&lt;/div&gt;" style="html=1;outlineConnect=0;whiteSpace=wrap;fillColor=#d5e8d4;shape=mxgraph.archimate3.application;appType=event;archiType=rounded;strokeColor=#82b366;" parent="1" vertex="1">
          <mxGeometry x="1008" y="482" width="110" height="55" as="geometry" />
        </mxCell>
        <mxCell id="rWcw17IF8FJHYAtS7dX6-24" value="Measurement&lt;div&gt;Alert Event&lt;/div&gt;" style="html=1;outlineConnect=0;whiteSpace=wrap;fillColor=#d5e8d4;shape=mxgraph.archimate3.application;appType=event;archiType=rounded;strokeColor=#82b366;" parent="1" vertex="1">
          <mxGeometry x="1018" y="492" width="110" height="55" as="geometry" />
        </mxCell>
        <mxCell id="rWcw17IF8FJHYAtS7dX6-25" value="Measurement&lt;div&gt;Alert Event&lt;/div&gt;" style="html=1;outlineConnect=0;whiteSpace=wrap;fillColor=#d5e8d4;shape=mxgraph.archimate3.application;appType=event;archiType=rounded;strokeColor=#82b366;" parent="1" vertex="1">
          <mxGeometry x="1008" y="690" width="110" height="55" as="geometry" />
        </mxCell>
        <mxCell id="rWcw17IF8FJHYAtS7dX6-26" value="Measurement&lt;div&gt;Alert Event&lt;/div&gt;" style="html=1;outlineConnect=0;whiteSpace=wrap;fillColor=#d5e8d4;shape=mxgraph.archimate3.application;appType=event;archiType=rounded;strokeColor=#82b366;" parent="1" vertex="1">
          <mxGeometry x="1018" y="700" width="110" height="55" as="geometry" />
        </mxCell>
        <mxCell id="76cBWIh9OMudEcv_i0Jw-6" value="" style="shape=image;verticalLabelPosition=bottom;labelBackgroundColor=default;verticalAlign=top;aspect=fixed;imageAspect=0;image=https://miro.medium.com/v2/resize:fit:1400/1*tp1LD0dN1Aexp01R-rH5_Q.png;" vertex="1" parent="1">
          <mxGeometry x="836" y="743.64" width="50" height="27.71" as="geometry" />
        </mxCell>
      </root>
    </mxGraphModel>
  </diagram>
</mxfile>
